<?xml version="1.0" encoding="UTF-8"?>
<svg version="1.1" xmlns="http://www.w3.org/2000/svg" width="3000" height="3000">
<path d="M0 0 C11.14320597 0.00518067 22.28641051 0.00772939 33.42961761 0.00866148 C34.64125698 0.00876459 34.64125698 0.00876459 35.87737392 0.00886978 C39.98441366 0.00920841 44.0914534 0.00950968 48.19849315 0.00979666 C76.81710617 0.01186227 105.43571629 0.01849842 134.0543277 0.02809927 C161.7473614 0.03737846 189.4403943 0.04441465 217.13342926 0.04860708 C217.99659284 0.04873861 218.85975642 0.04887014 219.74907648 0.04900565 C228.4222877 0.05032488 237.09549893 0.05160059 245.76871016 0.05284451 C263.41571455 0.05537644 281.06271889 0.05819768 298.7097232 0.06119559 C299.51998307 0.06133288 300.33024293 0.06147017 301.16505612 0.06161162 C354.69341478 0.07071442 408.2217718 0.08656805 461.75012848 0.10353873 C460.80859082 1.21275702 459.86549466 2.32065252 458.92175934 3.42800162 C458.1342353 4.35365675 458.1342353 4.35365675 457.3308017 5.29801199 C455.10887184 7.83601523 452.72500466 10.18468289 450.31262848 12.54103873 C447.19482783 15.61281245 444.14903086 18.70409475 441.31262848 22.04103873 C438.29660021 25.58032973 435.05564947 28.83848318 431.75012848 32.10353873 C428.46544857 35.34805748 425.24278844 38.58276231 422.25012848 42.10353873 C418.77469298 46.19228637 414.9691261 49.91170557 411.15466949 53.67946646 C407.79951954 57.00936203 404.65287396 60.44285272 401.58997223 64.04494498 C398.79177056 67.17584153 395.78239192 70.09183568 392.79456207 73.03957388 C390.18892109 75.6237619 387.68959739 78.2456303 385.31262848 81.04103873 C382.29660021 84.58032973 379.05564947 87.83848318 375.75012848 91.10353873 C372.46544857 94.34805748 369.24278844 97.58276231 366.25012848 101.10353873 C362.77469298 105.19228637 358.9691261 108.91170557 355.15466949 112.67946646 C351.79951954 116.00936203 348.65287396 119.44285272 345.58997223 123.04494498 C342.79177056 126.17584153 339.78239192 129.09183568 336.79456207 132.03957388 C334.18892109 134.6237619 331.68959739 137.2456303 329.31262848 140.04103873 C326.29660021 143.58032973 323.05564947 146.83848318 319.75012848 150.10353873 C316.46544857 153.34805748 313.24278844 156.58276231 310.25012848 160.10353873 C306.77402271 164.19307492 302.96763192 167.91314413 299.15247223 171.68166373 C296.40687362 174.40661874 293.75742896 177.15377346 291.25012848 180.10353873 C287.77469298 184.19228637 283.9691261 187.91170557 280.15466949 191.67946646 C276.79951954 195.00936203 273.65287396 198.44285272 270.58997223 202.04494498 C267.79177056 205.17584153 264.78239192 208.09183568 261.79456207 211.03957388 C259.18892109 213.6237619 256.68959739 216.2456303 254.31262848 219.04103873 C251.29660021 222.58032973 248.05564947 225.83848318 244.75012848 229.10353873 C241.46544857 232.34805748 238.24278844 235.58276231 235.25012848 239.10353873 C231.77402271 243.19307492 227.96763192 246.91314413 224.15247223 250.68166373 C221.40687362 253.40661874 218.75742896 256.15377346 216.25012848 259.10353873 C212.77469298 263.19228637 208.9691261 266.91170557 205.15466949 270.67946646 C201.79951954 274.00936203 198.65287396 277.44285272 195.58997223 281.04494498 C192.79177056 284.17584153 189.78239192 287.09183568 186.79456207 290.03957388 C184.18892109 292.6237619 181.68959739 295.2456303 179.31262848 298.04103873 C176.29660021 301.58032973 173.05564947 304.83848318 169.75012848 308.10353873 C166.46544857 311.34805748 163.24278844 314.58276231 160.25012848 318.10353873 C156.77469298 322.19228637 152.9691261 325.91170557 149.15466949 329.67946646 C145.79951954 333.00936203 142.65287396 336.44285272 139.58997223 340.04494498 C136.79177056 343.17584153 133.78239192 346.09183568 130.79456207 349.03957388 C128.18892109 351.6237619 125.68959739 354.2456303 123.31262848 357.04103873 C120.29660021 360.58032973 117.05564947 363.83848318 113.75012848 367.10353873 C110.46544857 370.34805748 107.24278844 373.58276231 104.25012848 377.10353873 C100.77402271 381.19307492 96.96763192 384.91314413 93.15247223 388.68166373 C90.40687362 391.40661874 87.75742896 394.15377346 85.25012848 397.10353873 C81.77469298 401.19228637 77.9691261 404.91170557 74.15466949 408.67946646 C70.79951954 412.00936203 67.65287396 415.44285272 64.58997223 419.04494498 C61.79177056 422.17584153 58.78239192 425.09183568 55.79456207 428.03957388 C53.18892109 430.6237619 50.68959739 433.2456303 48.31262848 436.04103873 C45.29660021 439.58032973 42.05564947 442.83848318 38.75012848 446.10353873 C35.46544857 449.34805748 32.24278844 452.58276231 29.25012848 456.10353873 C25.77402271 460.19307492 21.96763192 463.91314413 18.15247223 467.68166373 C15.40687362 470.40661874 12.75742896 473.15377346 10.25012848 476.10353873 C6.77469298 480.19228637 2.9691261 483.91170557 -0.84533051 487.67946646 C-4.20048046 491.00936203 -7.34712604 494.44285272 -10.41002777 498.04494498 C-13.20822944 501.17584153 -16.21760808 504.09183568 -19.20543793 507.03957388 C-21.81107891 509.6237619 -24.31040261 512.2456303 -26.68737152 515.04103873 C-29.70339979 518.58032973 -32.94435053 521.83848318 -36.24987152 525.10353873 C-39.53455143 528.34805748 -42.75721156 531.58276231 -45.74987152 535.10353873 C-49.22530702 539.19228637 -53.0308739 542.91170557 -56.84533051 546.67946646 C-60.20048046 550.00936203 -63.34712604 553.44285272 -66.41002777 557.04494498 C-69.20822944 560.17584153 -72.21760808 563.09183568 -75.20543793 566.03957388 C-77.81107891 568.6237619 -80.31040261 571.2456303 -82.68737152 574.04103873 C-85.70339979 577.58032973 -88.94435053 580.83848318 -92.24987152 584.10353873 C-95.53455143 587.34805748 -98.75721156 590.58276231 -101.74987152 594.10353873 C-105.22597729 598.19307492 -109.03236808 601.91314413 -112.84752777 605.68166373 C-115.59312638 608.40661874 -118.24257104 611.15377346 -120.74987152 614.10353873 C-124.22530702 618.19228637 -128.0308739 621.91170557 -131.84533051 625.67946646 C-135.20048046 629.00936203 -138.34712604 632.44285272 -141.41002777 636.04494498 C-144.20822944 639.17584153 -147.21760808 642.09183568 -150.20543793 645.03957388 C-152.81107891 647.6237619 -155.31040261 650.2456303 -157.68737152 653.04103873 C-160.70339979 656.58032973 -163.94435053 659.83848318 -167.24987152 663.10353873 C-170.53455143 666.34805748 -173.75721156 669.58276231 -176.74987152 673.10353873 C-180.22597729 677.19307492 -184.03236808 680.91314413 -187.84752777 684.68166373 C-190.59312638 687.40661874 -193.24257104 690.15377346 -195.74987152 693.10353873 C-199.22530702 697.19228637 -203.0308739 700.91170557 -206.84533051 704.67946646 C-210.20048046 708.00936203 -213.34712604 711.44285272 -216.41002777 715.04494498 C-219.20822944 718.17584153 -222.21760808 721.09183568 -225.20543793 724.03957388 C-227.81107891 726.6237619 -230.31040261 729.2456303 -232.68737152 732.04103873 C-235.70339979 735.58032973 -238.94435053 738.83848318 -242.24987152 742.10353873 C-245.53455143 745.34805748 -248.75721156 748.58276231 -251.74987152 752.10353873 C-255.22530702 756.19228637 -259.0308739 759.91170557 -262.84533051 763.67946646 C-266.20048046 767.00936203 -269.34712604 770.44285272 -272.41002777 774.04494498 C-275.20822944 777.17584153 -278.21760808 780.09183568 -281.20543793 783.03957388 C-283.81107891 785.6237619 -286.31040261 788.2456303 -288.68737152 791.04103873 C-292.18251373 795.14256705 -295.99847874 798.88306785 -299.83190277 802.66384146 C-303.29157988 806.09348665 -306.55554028 809.61923193 -309.65221527 813.38478873 C-311.66366756 815.54869828 -313.93274389 817.27642313 -316.24987152 819.10353873 C-318.53476356 818.13034397 -320.81965546 817.15714889 -323.10454682 816.18395254 C-325.18580279 815.2974932 -327.26706101 814.41103914 -329.34832123 813.52458975 C-334.69735847 811.24632135 -340.04637661 808.96800814 -345.39531258 806.68950197 C-348.54994474 805.34571408 -351.70459189 804.00196137 -354.85924652 802.65822623 C-355.49950146 802.38550705 -356.13975639 802.11278788 -356.799413 801.83180449 C-365.82900945 797.98568849 -374.85945725 794.14157839 -383.89049652 790.29885123 C-417.92464667 775.81554184 -451.92626382 761.25708643 -485.91686371 746.6718981 C-491.06929347 744.46105301 -496.22194171 742.25071806 -501.37487152 740.04103873 C-502.20271149 739.68603293 -503.03055145 739.33102713 -503.88347748 738.96526358 C-519.84542892 732.12174574 -535.82478163 725.3192662 -551.80510834 718.51879141 C-570.46787977 710.57602936 -589.11484372 702.59692667 -607.75444916 694.59996817 C-625.15714408 687.13424508 -642.57394561 679.70236097 -659.99987152 672.29103873 C-683.45432027 662.31557768 -706.86416636 652.23901889 -730.24987152 642.10353873 C-730.57987152 642.43353873 -730.90987152 642.76353873 -731.24987152 643.10353873 C-730.35062958 643.99492544 -730.35062958 643.99492544 -729.43322113 644.90431998 C-727.17412626 647.14619979 -724.9174228 649.39045404 -722.66222504 651.63625357 C-721.69244879 652.60105331 -720.72177082 653.56494768 -719.75011566 654.52785513 C-714.652028 659.58124579 -709.68643413 664.66295717 -705.01769379 670.11525748 C-701.45144068 674.12624564 -697.57357129 677.84024496 -693.74987152 681.60353873 C-688.66026226 686.61274342 -683.71982552 691.64376654 -679.0682309 697.0625231 C-675.48144465 701.08850767 -671.5913433 704.82275371 -667.74987152 708.60353873 C-662.66026226 713.61274342 -657.71982552 718.64376654 -653.0682309 724.0625231 C-649.48144465 728.08850767 -645.5913433 731.82275371 -641.74987152 735.60353873 C-636.65003022 740.62281382 -631.6980367 745.66399498 -627.0369809 751.0937731 C-623.61986269 754.93663063 -619.91528488 758.4996256 -616.24987152 762.10353873 C-607.68423318 770.5254583 -607.68423318 770.5254583 -603.78112152 775.07228873 C-599.68784395 779.83520387 -595.22340215 784.20067999 -590.74987152 788.60353873 C-585.65003022 793.62281382 -580.6980367 798.66399498 -576.0369809 804.0937731 C-572.61986269 807.93663063 -568.91528488 811.4996256 -565.24987152 815.10353873 C-556.68423318 823.5254583 -556.68423318 823.5254583 -552.78112152 828.07228873 C-548.68784395 832.83520387 -544.22340215 837.20067999 -539.74987152 841.60353873 C-534.65003022 846.62281382 -529.6980367 851.66399498 -525.0369809 857.0937731 C-521.61986269 860.93663063 -517.91528488 864.4996256 -514.24987152 868.10353873 C-509.32076434 872.94994277 -504.56014941 877.83351491 -500.05455902 883.07619498 C-496.62977321 886.92351929 -492.92132626 890.49368558 -489.24987152 894.10353873 C-480.68423318 902.5254583 -480.68423318 902.5254583 -476.78112152 907.07228873 C-472.68784395 911.83520387 -468.22340215 916.20067999 -463.74987152 920.60353873 C-458.65003022 925.62281382 -453.6980367 930.66399498 -449.0369809 936.0937731 C-445.61986269 939.93663063 -441.91528488 943.4996256 -438.24987152 947.10353873 C-429.68423318 955.5254583 -429.68423318 955.5254583 -425.78112152 960.07228873 C-421.68784395 964.83520387 -417.22340215 969.20067999 -412.74987152 973.60353873 C-407.65003022 978.62281382 -402.6980367 983.66399498 -398.0369809 989.0937731 C-394.61986269 992.93663063 -390.91528488 996.4996256 -387.24987152 1000.10353873 C-382.32076434 1004.94994277 -377.56014941 1009.83351491 -373.05455902 1015.07619498 C-369.62977321 1018.92351929 -365.92132626 1022.49368558 -362.24987152 1026.10353873 C-353.68423318 1034.5254583 -353.68423318 1034.5254583 -349.78112152 1039.07228873 C-345.68784395 1043.83520387 -341.22340215 1048.20067999 -336.74987152 1052.60353873 C-331.65003022 1057.62281382 -326.6980367 1062.66399498 -322.0369809 1068.0937731 C-318.61986269 1071.93663063 -314.91528488 1075.4996256 -311.24987152 1079.10353873 C-306.32076434 1083.94994277 -301.56014941 1088.83351491 -297.05455902 1094.07619498 C-293.62977321 1097.92351929 -289.92132626 1101.49368558 -286.24987152 1105.10353873 C-281.32076434 1109.94994277 -276.56014941 1114.83351491 -272.05455902 1120.07619498 C-268.62977321 1123.92351929 -264.92132626 1127.49368558 -261.24987152 1131.10353873 C-256.32076434 1135.94994277 -251.56014941 1140.83351491 -247.05455902 1146.07619498 C-243.62977321 1149.92351929 -239.92132626 1153.49368558 -236.24987152 1157.10353873 C-231.32076434 1161.94994277 -226.56014941 1166.83351491 -222.05455902 1172.07619498 C-218.62977321 1175.92351929 -214.92132626 1179.49368558 -211.24987152 1183.10353873 C-206.32076434 1187.94994277 -201.56014941 1192.83351491 -197.05455902 1198.07619498 C-193.62977321 1201.92351929 -189.92132626 1205.49368558 -186.24987152 1209.10353873 C-181.32076434 1213.94994277 -176.56014941 1218.83351491 -172.05455902 1224.07619498 C-168.62977321 1227.92351929 -164.92132626 1231.49368558 -161.24987152 1235.10353873 C-156.32076434 1239.94994277 -151.56014941 1244.83351491 -147.05455902 1250.07619498 C-143.62977321 1253.92351929 -139.92132626 1257.49368558 -136.24987152 1261.10353873 C-131.32076434 1265.94994277 -126.56014941 1270.83351491 -122.05455902 1276.07619498 C-118.62977321 1279.92351929 -114.92132626 1283.49368558 -111.24987152 1287.10353873 C-106.32076434 1291.94994277 -101.56014941 1296.83351491 -97.05455902 1302.07619498 C-93.62977321 1305.92351929 -89.92132626 1309.49368558 -86.24987152 1313.10353873 C-81.31053326 1317.96000219 -76.53836012 1322.85375649 -72.02330902 1328.10744498 C-68.76797031 1331.77149361 -65.24535205 1335.17058916 -61.74987152 1338.60353873 C-57.62662578 1342.65302336 -53.54975452 1346.68712821 -49.78112152 1351.07228873 C-45.8379976 1355.65532533 -41.55876755 1359.86693961 -37.24987152 1364.10353873 C-32.31053326 1368.96000219 -27.53836012 1373.85375649 -23.02330902 1379.10744498 C-19.76797031 1382.77149361 -16.24535205 1386.17058916 -12.74987152 1389.60353873 C-8.62662578 1393.65302336 -4.54975452 1397.68712821 -0.78112152 1402.07228873 C3.1620024 1406.65532533 7.44123245 1410.86693961 11.75012848 1415.10353873 C16.68946674 1419.96000219 21.46163988 1424.85375649 25.97669098 1430.10744498 C29.23202969 1433.77149361 32.75464795 1437.17058916 36.25012848 1440.60353873 C40.37337422 1444.65302336 44.45024548 1448.68712821 48.21887848 1453.07228873 C52.1620024 1457.65532533 56.44123245 1461.86693961 60.75012848 1466.10353873 C65.68946674 1470.96000219 70.46163988 1475.85375649 74.97669098 1481.10744498 C78.23202969 1484.77149361 81.75464795 1488.17058916 85.25012848 1491.60353873 C90.01870622 1496.28681096 94.59988814 1501.02320224 98.95911285 1506.08986685 C102.22203848 1509.75843427 105.7486156 1513.16466472 109.25012848 1516.60353873 C114.01870622 1521.28681096 118.59988814 1526.02320224 122.95911285 1531.08986685 C126.22203848 1534.75843427 129.7486156 1538.16466472 133.25012848 1541.60353873 C138.01870622 1546.28681096 142.59988814 1551.02320224 146.95911285 1556.08986685 C150.22203848 1559.75843427 153.7486156 1563.16466472 157.25012848 1566.60353873 C162.01870622 1571.28681096 166.59988814 1576.02320224 170.95911285 1581.08986685 C174.22203848 1584.75843427 177.7486156 1588.16466472 181.25012848 1591.60353873 C186.0289365 1596.29685823 190.62167942 1601.04345851 194.99036285 1606.12111685 C198.08406854 1609.60625699 201.42449326 1612.84161299 204.75012848 1616.10353873 C208.70880221 1619.9863758 212.60071186 1623.86694535 216.21887848 1628.07228873 C220.01154895 1632.47557055 224.10586054 1636.53340796 228.25012848 1640.60353873 C233.01870622 1645.28681096 237.59988814 1650.02320224 241.95911285 1655.08986685 C245.22203848 1658.75843427 248.7486156 1662.16466472 252.25012848 1665.60353873 C257.01870622 1670.28681096 261.59988814 1675.02320224 265.95911285 1680.08986685 C269.22203848 1683.75843427 272.7486156 1687.16466472 276.25012848 1690.60353873 C281.0289365 1695.29685823 285.62167942 1700.04345851 289.99036285 1705.12111685 C293.08406854 1708.60625699 296.42449326 1711.84161299 299.75012848 1715.10353873 C303.70880221 1718.9863758 307.60071186 1722.86694535 311.21887848 1727.07228873 C315.01154895 1731.47557055 319.10586054 1735.53340796 323.25012848 1739.60353873 C328.0289365 1744.29685823 332.62167942 1749.04345851 336.99036285 1754.12111685 C340.08406854 1757.60625699 343.42449326 1760.84161299 346.75012848 1764.10353873 C351.35815803 1768.62329185 355.76030645 1773.21286099 359.97278473 1778.10353873 C363.07399433 1781.59325151 366.4184698 1784.83570492 369.75012848 1788.10353873 C374.35815803 1792.62329185 378.76030645 1797.21286099 382.97278473 1802.10353873 C386.07399433 1805.59325151 389.4184698 1808.83570492 392.75012848 1812.10353873 C397.36838801 1816.63332585 401.78210128 1821.23313356 406.00403473 1826.13478873 C408.93625806 1829.44091973 412.09423517 1832.51271538 415.25012848 1835.60353873 C419.0442582 1839.31943897 422.75149414 1843.04666337 426.21887848 1847.07228873 C429.86079338 1851.29592682 433.77047147 1855.20012036 437.75012848 1859.10353873 C442.42075536 1863.68468999 446.89175903 1868.33702714 451.16077301 1873.29592154 C453.93712154 1876.45353821 456.99416314 1879.31401601 460.02747223 1882.22072623 C461.75012848 1884.10353873 461.75012848 1884.10353873 461.75012848 1886.10353873 C460.83704794 1886.10527497 459.92396739 1886.10701122 458.98321775 1886.10880009 C403.8755974 1886.21367338 348.76798491 1886.32209903 293.6603797 1886.43465567 C286.92377583 1886.44841425 280.1871719 1886.46214189 273.45056793 1886.47585318 C272.78062831 1886.47721726 272.11068869 1886.47858135 271.42044787 1886.47998677 C252.12797337 1886.51925581 232.83549662 1886.55706839 213.54301651 1886.59349637 C181.33730629 1886.65430785 149.13160377 1886.71826165 116.92590973 1886.78713248 C115.02354536 1886.79118704 115.02354536 1886.79118704 113.0827494 1886.79532352 C31.24738266 1886.97014861 -50.58606468 1887.29200013 -132.41998574 1887.80987707 C-145.21606077 1887.89068265 -158.01215843 1887.96618717 -170.80830535 1888.03472212 C-177.47025166 1888.07050456 -184.1321462 1888.10855919 -190.79402664 1888.15543005 C-196.34501011 1888.19427259 -201.89594938 1888.22354929 -207.44702974 1888.24418554 C-209.34639159 1888.25283971 -211.24574239 1888.26490407 -213.14505473 1888.28112063 C-229.07863625 1888.41420442 -245.34464853 1887.86191375 -260.87487152 1883.97853873 C-261.73258148 1883.76826041 -262.59029144 1883.55798208 -263.47399262 1883.34133169 C-281.15587035 1878.7327745 -296.36607522 1869.85478392 -310.24987152 1858.10353873 C-311.00397308 1857.47318716 -311.75807465 1856.8428356 -312.53502777 1856.19338248 C-320.31528166 1849.45222761 -327.20293915 1841.85215826 -334.19616058 1834.31447623 C-337.38850504 1830.8777345 -340.60152401 1827.46048154 -343.81237152 1824.04103873 C-345.05474315 1822.71569047 -346.29693081 1821.39016974 -347.53893402 1820.06447623 C-348.15156098 1819.41059927 -348.76418793 1818.75672232 -349.39537933 1818.08303091 C-350.63170746 1816.76336945 -351.86803558 1815.443708 -353.10436371 1814.12404654 C-356.83241125 1810.14497843 -360.56159032 1806.16697633 -364.29235199 1802.19045279 C-365.64590224 1800.74743114 -366.99906749 1799.30404831 -368.3519223 1797.86037466 C-370.48342884 1795.58618729 -372.61649823 1793.31347487 -374.74987152 1791.04103873 C-375.3962558 1790.35082632 -376.04264008 1789.66061392 -376.70861176 1788.94948599 C-379.76451066 1785.69727497 -382.848549 1782.48627734 -386.01549652 1779.34181998 C-388.28435618 1777.08857466 -390.44911906 1774.80993453 -392.49987152 1772.35353873 C-395.43266775 1768.94515393 -398.55060054 1765.75954709 -401.74987152 1762.60353873 C-405.46834599 1758.93507736 -408.98655337 1755.17204656 -412.37487152 1751.19728873 C-414.73332478 1748.56368259 -417.23433384 1746.08528245 -419.74987152 1743.60353873 C-422.8030377 1740.59122441 -425.79059543 1737.56804995 -428.56237152 1734.29103873 C-431.91875441 1730.34952371 -435.57305086 1726.74215865 -439.24987152 1723.10353873 C-443.4599843 1718.93707668 -447.5222837 1714.75068463 -451.34752777 1710.22463248 C-454.03139639 1707.23214652 -456.89221241 1704.42920613 -459.74987152 1701.60353873 C-463.17831703 1698.21347492 -466.57247851 1694.85159916 -469.68737152 1691.16603873 C-473.52347747 1686.63770313 -477.77568589 1682.52565788 -482.01329926 1678.37722037 C-485.03221143 1675.40244805 -487.92075198 1672.37807774 -490.68737152 1669.16603873 C-494.34112561 1664.93322987 -498.25972568 1661.01724499 -502.24987152 1657.10353873 C-506.85790107 1652.58378561 -511.26004949 1647.99421646 -515.47252777 1643.10353873 C-518.57373737 1639.61382595 -521.91821284 1636.37137253 -525.24987152 1633.10353873 C-529.20854526 1629.22070165 -533.1004549 1625.3401321 -536.71862152 1621.13478873 C-540.511292 1616.7315069 -544.60560359 1612.67366949 -548.74987152 1608.60353873 C-552.87311726 1604.55405409 -556.94998852 1600.51994924 -560.71862152 1596.13478873 C-564.66174545 1591.55175212 -568.9409755 1587.34013784 -573.24987152 1583.10353873 C-578.18920979 1578.24707526 -582.96138293 1573.35332096 -587.47643402 1568.09963248 C-590.73177273 1564.43558384 -594.254391 1561.03648829 -597.74987152 1557.60353873 C-601.87311726 1553.55405409 -605.94998852 1549.51994924 -609.71862152 1545.13478873 C-613.66174545 1540.55175212 -617.9409755 1536.34013784 -622.24987152 1532.10353873 C-627.1789787 1527.25713469 -631.93959363 1522.37356254 -636.44518402 1517.13088248 C-639.86996983 1513.28355816 -643.57841679 1509.71339187 -647.24987152 1506.10353873 C-652.18920979 1501.24707526 -656.96138293 1496.35332096 -661.47643402 1491.09963248 C-664.73177273 1487.43558384 -668.254391 1484.03648829 -671.74987152 1480.60353873 C-676.52867954 1475.91021922 -681.12142246 1471.16361894 -685.4901059 1466.0859606 C-688.58381158 1462.60082046 -691.9242363 1459.36546446 -695.24987152 1456.10353873 C-699.20854526 1452.22070165 -703.1004549 1448.3401321 -706.71862152 1444.13478873 C-710.511292 1439.7315069 -714.60560359 1435.67366949 -718.74987152 1431.60353873 C-723.55937776 1426.88007017 -728.18680226 1422.10284322 -732.5838559 1416.9922106 C-735.17186211 1414.05832783 -737.95292446 1411.33636272 -740.74987152 1408.60353873 C-744.82860112 1404.57563441 -748.73561898 1400.50094097 -752.44518402 1396.12697623 C-755.22772481 1393.00715776 -758.22671177 1390.10620179 -761.20128754 1387.17165396 C-764.45020628 1383.94955346 -767.47446073 1380.60995569 -770.44127777 1377.13088248 C-773.42148812 1373.79021473 -776.64817747 1370.69795055 -779.83190277 1367.55275748 C-782.5563707 1364.79307833 -785.08534528 1361.91173215 -787.60534027 1358.96681998 C-789.79260894 1356.48860821 -792.14267032 1354.19989705 -794.49987152 1351.88478873 C-796.95622001 1349.38457687 -799.2129652 1346.72673357 -801.49987152 1344.07228873 C-803.69997324 1341.59717429 -806.04401666 1339.29608146 -808.40685394 1336.9778063 C-810.18104782 1335.1735294 -811.83919814 1333.31524182 -813.48815277 1331.39650748 C-817.19703247 1327.13105085 -821.04721423 1323.01585663 -824.93737152 1318.91603873 C-831.27673854 1312.20772933 -837.56790078 1305.45889236 -843.81432465 1298.6640856 C-846.2891172 1295.97380091 -848.76987786 1293.2890279 -851.24987152 1290.60353873 C-852.24858974 1289.52152621 -853.24728767 1288.43949498 -854.24596527 1287.35744498 C-856.25841859 1285.17723261 -858.2714991 1282.99760171 -860.28502777 1280.81838248 C-866.50218275 1274.08855503 -872.70388345 1267.34488976 -878.8909848 1260.58742544 C-881.17629648 1258.09189466 -883.46316733 1255.59779345 -885.74987152 1253.10353873 C-886.66654556 1252.10354548 -887.58321223 1251.10354548 -888.49987152 1250.10353873 C-888.95362152 1249.60853873 -889.40737152 1249.11353873 -889.87487152 1248.60353873 C-891.24987152 1247.10353873 -892.62487152 1245.60353873 -893.99987152 1244.10353873 C-894.45378266 1243.60837759 -894.90769379 1243.11321646 -895.3753598 1242.60305044 C-896.29045785 1241.60473211 -897.20549708 1240.60635986 -898.12047699 1239.60793326 C-900.43566005 1237.08175452 -902.75191162 1234.5565704 -905.07018402 1232.03322623 C-909.29753903 1227.43004108 -913.51513235 1222.81940097 -917.68737152 1218.16603873 C-921.68504525 1213.71067069 -925.74188037 1209.31270353 -929.80822113 1204.92018912 C-933.54514034 1200.87903988 -937.23286258 1196.79643276 -940.90612152 1192.69728873 C-943.66455512 1189.64462221 -946.45487462 1186.62269578 -949.24987152 1183.60353873 C-953.50872476 1179.00312333 -957.72228995 1174.36620222 -961.90612152 1169.69728873 C-964.66455512 1166.64462221 -967.45487462 1163.62269578 -970.24987152 1160.60353873 C-974.50872476 1156.00312333 -978.72228995 1151.36620222 -982.90612152 1146.69728873 C-985.66455512 1143.64462221 -988.45487462 1140.62269578 -991.24987152 1137.60353873 C-994.77684768 1133.79369731 -998.28497366 1129.97016387 -1001.74987152 1126.10353873 C-1006.18603915 1121.15488963 -1010.69420986 1116.275191 -1015.20690277 1111.39650748 C-1019.45058584 1106.80783144 -1023.67027694 1102.19722269 -1027.8909848 1097.58742544 C-1030.17629647 1095.09189467 -1032.46314901 1092.59777664 -1034.74987152 1090.10353873 C-1037.48890401 1087.11594463 -1040.22764366 1084.12808576 -1042.96471527 1081.13869498 C-1049.20435529 1074.32519189 -1055.46394801 1067.53039648 -1061.73375824 1060.74465201 C-1063.74026008 1058.57271877 -1065.74585589 1056.39995019 -1067.75133637 1054.22707388 C-1068.75285571 1053.14201301 -1069.75448386 1052.05705256 -1070.75621918 1050.97219107 C-1073.22086583 1048.30289001 -1075.68416974 1045.63237744 -1078.14440277 1042.95900748 C-1084.28856116 1036.28631933 -1090.47477738 1029.65479338 -1096.68493012 1023.04348013 C-1100.53992486 1018.93653781 -1104.374479 1014.81207135 -1108.18737152 1010.66603873 C-1114.78260144 1003.49925198 -1121.46711421 996.41724635 -1128.15026215 989.33254263 C-1130.2858261 987.06536834 -1132.41688399 984.79403791 -1134.54674652 982.52150748 C-1135.25089691 981.77095083 -1135.9550473 981.02039419 -1136.68053558 980.24709341 C-1138.01159549 978.82809184 -1139.34174858 977.4082388 -1140.67076996 975.98732779 C-1144.50631105 971.90212418 -1148.41645318 967.9088862 -1152.40953949 963.97731802 C-1154.92000861 961.42122218 -1157.23944168 958.71768241 -1159.57409027 956.00197623 C-1162.01255843 953.23951579 -1164.61296737 950.67612814 -1167.24987152 948.10353873 C-1165.66856532 944.36431744 -1163.31756754 941.80704135 -1160.56237152 938.85353873 C-1157.60446317 935.65870155 -1154.65867806 932.46139848 -1151.81237152 929.16603873 C-1148.423792 925.26717899 -1144.93269622 921.46506191 -1141.4354184 917.6640856 C-1138.54033982 914.51623072 -1135.66626144 911.35141495 -1132.81237152 908.16603873 C-1128.81469779 903.71067069 -1124.75786267 899.31270353 -1120.69152191 894.92018912 C-1117.6859108 891.66988522 -1114.70435228 888.40056798 -1111.74987152 885.10353873 C-1106.82429714 879.60997018 -1101.81465274 874.19579297 -1096.8026059 868.7812731 C-1094.26220673 866.03636381 -1091.72454815 863.28892654 -1089.18737152 860.54103873 C-1088.6900351 860.0024523 -1088.19269867 859.46386587 -1087.68029144 858.90895865 C-1084.36251707 855.31411684 -1081.05355189 851.7113335 -1077.74987152 848.10353873 C-1072.43782945 842.30250608 -1067.10392818 836.52184756 -1061.7659848 830.74465201 C-1059.25973048 828.03176286 -1056.75486707 825.31759013 -1054.24987152 822.60353873 C-1053.24987828 821.52019915 -1052.24987828 820.43686582 -1051.24987152 819.35353873 C-1050.75487152 818.81728873 -1050.25987152 818.28103873 -1049.74987152 817.72853873 C-1040.24987152 807.43687206 -1030.74987152 797.14520539 -1021.24987152 786.85353873 C-1020.75503266 786.31744986 -1020.26019379 785.78136099 -1019.7503598 785.22902701 C-1018.74878626 784.14401616 -1017.74715852 783.05905535 -1016.74547699 781.97414419 C-1014.2691088 779.29188115 -1011.79364088 776.60879938 -1009.32018402 773.92385123 C-1003.36852936 767.46575694 -997.3888387 761.03486132 -991.3909848 754.61965201 C-986.92702931 749.8404489 -982.50561422 745.02452779 -978.09362152 740.19728873 C-974.23990097 735.99322994 -970.33705509 731.83497688 -966.44127777 727.66994498 C-962.85600021 723.83361953 -959.29234898 719.97942583 -955.74987152 716.10353873 C-951.03859864 710.94950305 -946.2808776 705.84060163 -941.51159027 700.74025748 C-937.74285231 696.70820158 -933.98899234 692.66306621 -930.24987152 688.60353873 C-925.34331521 683.27709994 -920.40592986 677.98010769 -915.46080902 672.68947623 C-911.7095757 668.67383879 -907.97306017 664.64518253 -904.24987152 660.60353873 C-897.02482146 652.7621565 -889.73996988 644.97680643 -882.4588559 637.1875231 C-876.37218497 630.67511781 -870.29021108 624.15897719 -864.24987152 617.60353873 C-857.02471857 609.76225014 -849.73997084 601.97680746 -842.4588559 594.1875231 C-836.39226468 587.696602 -830.33072252 581.20174965 -824.31237152 574.66603873 C-818.59627211 568.45987854 -812.82514365 562.30611297 -807.05065277 556.15431998 C-799.10482046 547.68891344 -791.17762878 539.20640272 -783.31237152 530.66603873 C-777.59248824 524.45585238 -771.81771034 518.29795047 -766.03893402 512.14260123 C-762.43505462 508.30324629 -758.84104286 504.45477791 -755.24987152 500.60353873 C-750.42443439 495.42943891 -745.59041947 490.2635042 -740.74987152 485.10353873 C-734.149592 478.06727118 -727.56378795 471.01762796 -720.98375824 463.96242544 C-717.4893103 460.21605448 -713.99320874 456.47122655 -710.49743012 452.72609732 C-707.59276254 449.61412701 -704.68847055 446.50180809 -701.78502777 443.38869498 C-692.65841751 433.6042184 -683.50895424 423.84132447 -674.35436371 414.08303091 C-667.64487872 406.93062995 -660.93890683 399.77507418 -654.24987152 392.60353873 C-647.55942325 385.43048838 -640.85194395 378.27351023 -634.1409848 371.11965201 C-631.00990494 367.78161205 -627.87994188 364.44252526 -624.74987152 361.10353873 C-623.49987694 359.77020032 -622.24987694 358.43686698 -620.99987152 357.10353873 C-620.38112152 356.44353873 -619.76237152 355.78353873 -619.12487152 355.10353873 C-617.24987152 353.10353873 -615.37487152 351.10353873 -613.49987152 349.10353873 C-612.88120209 348.44361929 -612.26253266 347.78369986 -611.62511566 347.10378287 C-610.37432351 345.76961543 -609.12350969 344.43546831 -607.87267426 343.10134146 C-604.75961664 339.78093566 -601.64692884 336.46018475 -598.53502777 333.13869498 C-591.44302797 325.56992207 -584.34145096 318.01030238 -577.23058441 310.45925162 C-572.73075773 305.67985798 -568.23796618 300.89394946 -563.74987152 296.10353873 C-556.60028748 288.4728682 -549.4347804 280.85727147 -542.2659848 273.24465201 C-538.92661541 269.69824009 -535.58829395 266.15084204 -532.24987152 262.60353873 C-530.91654327 261.18686728 -529.58320993 259.77020061 -528.24987152 258.35353873 C-527.58987152 257.65228873 -526.92987152 256.95103873 -526.24987152 256.22853873 C-523.24987152 253.04103873 -523.24987152 253.04103873 -520.24987152 249.85353873 C-519.25878388 248.80045523 -519.25878388 248.80045523 -518.24767426 247.72609732 C-516.92180745 246.31743472 -515.59579961 244.90890484 -514.26964691 243.50051138 C-510.82087414 239.83748959 -507.37499434 236.17180551 -503.93346527 232.50197623 C-503.2225473 231.74465201 -502.51162933 230.98732779 -501.7791684 230.20705435 C-500.43189243 228.77172113 -499.08547063 227.33558542 -497.7401059 225.8984606 C-494.70397755 222.66563428 -491.63938607 219.474594 -488.49205902 216.34963248 C-486.20011799 214.07345356 -484.01277486 211.76921576 -481.93737152 209.29103873 C-479.17369123 206.08020117 -476.26367556 203.08086707 -473.24987152 200.10353873 C-470.29804127 197.1872727 -467.44598293 194.25748038 -464.74987152 191.10353873 C-461.26535046 187.02730654 -457.46905171 183.30803 -453.65612152 179.54103873 C-451.59537807 177.45353237 -449.65471526 175.3318465 -447.74987152 173.10353873 C-445.05376011 169.94959707 -442.20170177 167.01980476 -439.24987152 164.10353873 C-436.33933351 161.22796213 -433.52563131 158.34479779 -430.87487152 155.22853873 C-427.83556429 151.67067671 -424.57623458 148.38911879 -421.24987152 145.10353873 C-417.35091058 141.25232259 -413.6416285 137.33932138 -410.08971527 133.16213248 C-407.2915136 130.03123592 -404.28213496 127.11524177 -401.29430512 124.16750357 C-398.68866414 121.58331555 -396.18934043 118.96144715 -393.81237152 116.16603873 C-390.79634326 112.62674772 -387.55539251 109.36859427 -384.24987152 106.10353873 C-380.96519162 102.85901997 -377.74253148 99.62431515 -374.74987152 96.10353873 C-371.7572109 92.58276152 -368.53454182 89.3480664 -365.24987152 86.10353873 C-362.00690304 82.90010658 -358.8205101 79.71246659 -355.87487152 76.22853873 C-352.54250884 72.30521517 -348.90571591 68.7214545 -345.24987152 65.10353873 C-339.86448609 59.79152528 -339.86448609 59.79152528 -334.81237152 54.16603873 C-330.75355838 49.35982265 -326.20252742 45.0297549 -321.73424652 40.60964224 C-318.46914983 37.36694828 -315.28637619 34.12014471 -312.31237152 30.60353873 C-298.37114261 14.31541951 -276.49553651 3.29668688 -255.24987152 1.10353873 C-251.81631037 0.94396517 -248.38508936 0.92003207 -244.94819763 0.89976618 C-243.92246119 0.89002417 -242.89672475 0.88028215 -241.83990538 0.87024493 C-238.40509102 0.83897616 -234.97026567 0.8146576 -231.53539398 0.7905657 C-229.06749126 0.77009012 -226.59959101 0.74931364 -224.13169315 0.72825966 C-217.39026943 0.67246834 -210.64881601 0.62367148 -203.90732518 0.57695307 C-199.61940571 0.54718233 -195.33150233 0.51539875 -191.04359844 0.48347602 C-127.36253917 0.01255122 -63.68247849 -0.03011745 0 0 Z " fill="#000000" transform="translate(2323.249871522188,534.8964612744749)"/>
<path d="M0 0 C4.06764169 1.57180534 6.50643145 4.49142887 9.3125 7.6875 C10.291713 8.78107364 11.27217816 9.8735274 12.25390625 10.96484375 C12.72586426 11.49062012 13.19782227 12.01639648 13.68408203 12.55810547 C15.3172444 14.34761511 17.01752994 16.05681497 18.75 17.75 C21.10064563 20.05597778 23.28923245 22.44164759 25.4375 24.9375 C27.85617779 27.74576347 30.35899683 30.39970593 33 33 C36.25029983 36.20029522 39.24724245 39.54224576 42.21875 43 C44.0742521 45.08337078 46.01223101 47.04281207 48 49 C50.59982183 51.55990134 53.06268398 54.1677954 55.4375 56.9375 C58.00665271 59.92801716 60.69317256 62.73116684 63.5 65.5 C66.9288279 68.88241399 70.12048518 72.38070442 73.25390625 76.03515625 C75.09615675 78.10820324 77.02401662 80.05435802 79 82 C81.59982183 84.55990134 84.06268398 87.1677954 86.4375 89.9375 C89.00665271 92.92801716 91.69317256 95.73116684 94.5 98.5 C97.9288279 101.88241399 101.12048518 105.38070442 104.25390625 109.03515625 C106.09615675 111.10820324 108.02401662 113.05435802 110 115 C112.59982183 117.55990134 115.06268398 120.1677954 117.4375 122.9375 C120.00665271 125.92801716 122.69317256 128.73116684 125.5 131.5 C128.9288279 134.88241399 132.12048518 138.38070442 135.25390625 142.03515625 C137.09615675 144.10820324 139.02401662 146.05435802 141 148 C143.59982183 150.55990134 146.06268398 153.1677954 148.4375 155.9375 C151.00665271 158.92801716 153.69317256 161.73116684 156.5 164.5 C159.9288279 167.88241399 163.12048518 171.38070442 166.25390625 175.03515625 C168.09615675 177.10820324 170.02401662 179.05435802 172 181 C174.59982183 183.55990134 177.06268398 186.1677954 179.4375 188.9375 C182.00665271 191.92801716 184.69317256 194.73116684 187.5 197.5 C190.9288279 200.88241399 194.12048518 204.38070442 197.25390625 208.03515625 C199.09615675 210.10820324 201.02401662 212.05435802 203 214 C205.59982183 216.55990134 208.06268398 219.1677954 210.4375 221.9375 C213.00665271 224.92801716 215.69317256 227.73116684 218.5 230.5 C221.9288279 233.88241399 225.12048518 237.38070442 228.25390625 241.03515625 C230.09615675 243.10820324 232.02401662 245.05435802 234 247 C236.59982183 249.55990134 239.06268398 252.1677954 241.4375 254.9375 C244.00665271 257.92801716 246.69317256 260.73116684 249.5 263.5 C252.9288279 266.88241399 256.12048518 270.38070442 259.25390625 274.03515625 C261.09615675 276.10820324 263.02401662 278.05435802 265 280 C267.59982183 282.55990134 270.06268398 285.1677954 272.4375 287.9375 C275.00665271 290.92801716 277.69317256 293.73116684 280.5 296.5 C283.9288279 299.88241399 287.12048518 303.38070442 290.25390625 307.03515625 C292.09615675 309.10820324 294.02401662 311.05435802 296 313 C298.59982183 315.55990134 301.06268398 318.1677954 303.4375 320.9375 C306.00665271 323.92801716 308.69317256 326.73116684 311.5 329.5 C314.9288279 332.88241399 318.12048518 336.38070442 321.25390625 340.03515625 C323.09615675 342.10820324 325.02401662 344.05435802 327 346 C329.59982183 348.55990134 332.06268398 351.1677954 334.4375 353.9375 C337.00665271 356.92801716 339.69317256 359.73116684 342.5 362.5 C345.9288279 365.88241399 349.12048518 369.38070442 352.25390625 373.03515625 C354.72115297 375.81149876 357.37376052 378.38345088 360.01953125 380.98828125 C362.60194685 383.61144502 364.9914008 386.3780452 367.390625 389.16796875 C369.49239542 391.56051809 371.71440942 393.78366974 374 396 C372.34264193 400.34924537 369.08842506 403.09131761 365.8125 406.25 C360.51533004 411.43098388 360.51533004 411.43098388 355.5625 416.9375 C352.25427322 420.84270003 348.6348601 424.40280684 345 428 C339.61461588 433.31201452 339.61461588 433.31201452 334.5625 438.9375 C330.49925535 443.74896362 325.94173997 448.08176655 321.47119141 452.50927734 C317.7902331 456.16830887 314.27841337 459.87731192 310.93359375 463.84765625 C307.49111932 467.67958233 303.77333598 471.24501916 300.11303711 474.86743164 C297.13182682 477.82956982 294.2142922 480.78716434 291.5 484 C288.21603046 487.88714761 284.61386156 491.42354417 281 495 C275.61461721 500.3120156 275.61461721 500.3120156 270.5625 505.9375 C266.49925535 510.74896362 261.94173997 515.08176655 257.47119141 519.50927734 C253.7902331 523.16830887 250.27841337 526.87731192 246.93359375 530.84765625 C243.49111932 534.67958233 239.77333598 538.24501916 236.11303711 541.86743164 C233.13182682 544.82956982 230.2142922 547.78716434 227.5 551 C223.64811224 555.55937735 219.35187792 559.67246864 215.11328125 563.8671875 C212.13199023 566.82940843 209.21436684 569.78707598 206.5 573 C203.21603046 576.88714761 199.61386156 580.42354417 196 584 C190.61461721 589.3120156 190.61461721 589.3120156 185.5625 594.9375 C181.49925535 599.74896362 176.94173997 604.08176655 172.47119141 608.50927734 C168.7902331 612.16830887 165.27841337 615.87731192 161.93359375 619.84765625 C158.49111932 623.67958233 154.77333598 627.24501916 151.11303711 630.86743164 C148.13182682 633.82956982 145.2142922 636.78716434 142.5 640 C139.21603046 643.88714761 135.61386156 647.42354417 132 651 C126.61461721 656.3120156 126.61461721 656.3120156 121.5625 661.9375 C117.49925535 666.74896362 112.94173997 671.08176655 108.47119141 675.50927734 C104.7902331 679.16830887 101.27841337 682.87731192 97.93359375 686.84765625 C94.49111932 690.67958233 90.77333598 694.24501916 87.11303711 697.86743164 C84.13182682 700.82956982 81.2142922 703.78716434 78.5 707 C74.64811224 711.55937735 70.35187792 715.67246864 66.11328125 719.8671875 C63.13199023 722.82940843 60.21436684 725.78707598 57.5 729 C54.21603046 732.88714761 50.61386156 736.42354417 47 740 C41.61461721 745.3120156 41.61461721 745.3120156 36.5625 750.9375 C32.49925535 755.74896362 27.94173997 760.08176655 23.47119141 764.50927734 C19.7902331 768.16830887 16.27841337 771.87731192 12.93359375 775.84765625 C9.49111932 779.67958233 5.77333598 783.24501916 2.11303711 786.86743164 C-0.86817318 789.82956982 -3.7857078 792.78716434 -6.5 796 C-9.78396954 799.88714761 -13.38613844 803.42354417 -17 807 C-22.38538279 812.3120156 -22.38538279 812.3120156 -27.4375 817.9375 C-31.50074465 822.74896362 -36.05826003 827.08176655 -40.52880859 831.50927734 C-44.2097669 835.16830887 -47.72158663 838.87731192 -51.06640625 842.84765625 C-54.50888068 846.67958233 -58.22666402 850.24501916 -61.88696289 853.86743164 C-64.86817318 856.82956982 -67.7857078 859.78716434 -70.5 863 C-74.34878605 867.55570594 -78.64012549 871.66743033 -82.87792969 875.85620117 C-85.96099833 878.91658806 -88.95019024 881.98605936 -91.75 885.3125 C-101.21681992 896.35712323 -112.85415427 903.87351386 -126 909.8125 C-126.60344238 910.0904541 -127.20688477 910.3684082 -127.82861328 910.65478516 C-138.50132532 915.26084396 -149.47226299 916.45111569 -160.98696423 916.50772762 C-162.32814035 916.52443806 -163.66930207 916.54233925 -165.01044793 916.5613241 C-168.61580106 916.60855579 -172.2210867 916.63774409 -175.82665261 916.6629602 C-178.89396251 916.68662268 -181.96112269 916.72076478 -185.02833236 916.75479726 C-195.35203605 916.86883863 -205.67584098 916.94249804 -216 917 C-216.72551763 917.00406459 -217.45103526 917.00812917 -218.19853828 917.01231693 C-237.73592167 917.11934519 -257.27312301 917.13166176 -276.81074618 917.11761339 C-284.67137096 917.11217045 -292.53199303 917.11296034 -300.39261923 917.11374746 C-314.88105473 917.11503938 -329.36948555 917.11180597 -343.85791969 917.10573006 C-358.14428544 917.09975463 -372.43064923 917.09595254 -386.71701622 917.09487724 C-387.61478494 917.0948085 -388.51255366 917.09473976 -389.43752749 917.09466894 C-393.99927858 917.09433048 -398.56102967 917.09402914 -403.12278076 917.09374207 C-435.19603159 917.09165745 -467.26927989 917.08496497 -499.3425293 917.07543945 C-530.44604479 917.06621279 -561.54955958 917.05915006 -592.65307617 917.05493164 C-593.61663126 917.05480011 -594.58018636 917.05466859 -595.57294009 917.05453308 C-605.25185967 917.05321423 -614.93077926 917.05193847 -624.60969885 917.05069422 C-644.31602709 917.04815994 -664.02235529 917.04533869 -683.72868347 917.04234314 C-684.63418375 917.04220585 -685.53968404 917.04206856 -686.47262372 917.04192711 C-746.64841686 917.03277057 -806.8242086 917.01693089 -867 917 C-866.04589469 915.71433447 -865.08992258 914.43005416 -864.13316345 913.1463623 C-863.60100692 912.43103081 -863.06885038 911.71569931 -862.52056789 910.9786911 C-860.80213865 908.74252613 -858.96161252 906.74799001 -856.94140625 904.78125 C-856.22533203 904.07613281 -855.50925781 903.37101562 -854.77148438 902.64453125 C-854.04251953 901.93683594 -853.31355469 901.22914063 -852.5625 900.5 C-847.71523173 895.76906617 -843.04841938 890.99504005 -838.63256836 885.85742188 C-836.21459437 883.10642051 -833.62131389 880.55534705 -831 878 C-827.71326813 874.75784773 -824.49241664 871.52049017 -821.5 868 C-818.02389423 863.9104638 -814.21750344 860.1903946 -810.40234375 856.421875 C-807.65674514 853.69691999 -805.00730048 850.94976527 -802.5 848 C-799.02389423 843.9104638 -795.21750344 840.1903946 -791.40234375 836.421875 C-788.65674514 833.69691999 -786.00730048 830.94976527 -783.5 828 C-780.02389423 823.9104638 -776.21750344 820.1903946 -772.40234375 816.421875 C-769.65674514 813.69691999 -767.00730048 810.94976527 -764.5 808 C-761.0245645 803.91125235 -757.21899763 800.19183316 -753.40454102 796.42407227 C-750.04939106 793.0941767 -746.90274548 789.66068601 -743.83984375 786.05859375 C-741.04233133 782.92846838 -738.03375494 780.01314342 -735.04663086 777.06616211 C-732.41959998 774.4607863 -729.89999432 771.81537795 -727.5 769 C-724.65877199 765.66702099 -721.61578377 762.57391199 -718.5 759.5 C-715.40508498 756.44662049 -712.38065723 753.37676315 -709.5625 750.0625 C-706.06289503 745.95573465 -702.24017991 742.21275194 -698.40478516 738.42431641 C-695.04955443 735.09433671 -691.90282125 731.66077511 -688.83984375 728.05859375 C-686.04233133 724.92846838 -683.03375494 722.01314342 -680.04663086 719.06616211 C-677.41959998 716.4607863 -674.89999432 713.81537795 -672.5 711 C-669.2169922 707.14877931 -665.64595488 703.6171114 -662.046875 700.06640625 C-659.41976442 697.46094768 -656.90006916 694.81546575 -654.5 692 C-651.2169922 688.14877931 -647.64595488 684.6171114 -644.046875 681.06640625 C-641.41976442 678.46094768 -638.90006916 675.81546575 -636.5 673 C-633.2169922 669.14877931 -629.64595488 665.6171114 -626.046875 662.06640625 C-623.41976442 659.46094768 -620.90006916 656.81546575 -618.5 654 C-615.2176661 650.14956985 -611.64745151 646.61854421 -608.04907227 643.06860352 C-604.79999393 639.84633552 -601.77556137 636.50659355 -598.80859375 633.02734375 C-595.82349884 629.68120064 -592.59117232 626.58406048 -589.40234375 623.43359375 C-587.36285627 621.36757635 -585.444922 619.26994451 -583.5625 617.0625 C-580.69827645 613.71074904 -577.63665907 610.59443583 -574.5 607.5 C-571.38420877 604.42609473 -568.34122762 601.33297855 -565.5 598 C-562.2169922 594.14877931 -558.64595488 590.6171114 -555.046875 587.06640625 C-552.41976442 584.46094768 -549.90006916 581.81546575 -547.5 579 C-544.2176661 575.14956985 -540.64745151 571.61854421 -537.04907227 568.06860352 C-533.79999393 564.84633552 -530.77556137 561.50659355 -527.80859375 558.02734375 C-524.82349884 554.68120064 -521.59117232 551.58406048 -518.40234375 548.43359375 C-516.36285627 546.36757635 -514.444922 544.26994451 -512.5625 542.0625 C-509.69827645 538.71074904 -506.63665907 535.59443583 -503.5 532.5 C-500.38420877 529.42609473 -497.34122762 526.33297855 -494.5 523 C-491.2176661 519.14956985 -487.64745151 515.61854421 -484.04907227 512.06860352 C-480.79999393 508.84633552 -477.77556137 505.50659355 -474.80859375 502.02734375 C-471.82349884 498.68120064 -468.59117232 495.58406048 -465.40234375 492.43359375 C-463.36285627 490.36757635 -461.444922 488.26994451 -459.5625 486.0625 C-456.25653882 482.19382202 -452.66855322 478.63935695 -449.04931641 475.06884766 C-445.80015827 471.84649591 -442.77563666 468.50668184 -439.80859375 465.02734375 C-436.82349884 461.68120064 -433.59117232 458.58406048 -430.40234375 455.43359375 C-428.36285627 453.36757635 -426.444922 451.26994451 -424.5625 449.0625 C-421.25653882 445.19382202 -417.66855322 441.63935695 -414.04931641 438.06884766 C-410.80015827 434.84649591 -407.77563666 431.50668184 -404.80859375 428.02734375 C-401.82471996 424.68256946 -398.59380268 421.58664843 -395.40625 418.4375 C-393.34550655 416.34999365 -391.40484374 414.22830777 -389.5 412 C-386.80388859 408.84605835 -383.95183025 405.91626603 -381 403 C-378.06881809 400.10408042 -375.23596826 397.19757429 -372.5625 394.0625 C-369.25653882 390.19382202 -365.66855322 386.63935695 -362.04931641 383.06884766 C-358.80015827 379.84649591 -355.77563666 376.50668184 -352.80859375 373.02734375 C-349.82349884 369.68120064 -346.59117232 366.58406048 -343.40234375 363.43359375 C-341.36285627 361.36757635 -339.444922 359.26994451 -337.5625 357.0625 C-334.25653882 353.19382202 -330.66855322 349.63935695 -327.04931641 346.06884766 C-323.80015827 342.84649591 -320.77563666 339.50668184 -317.80859375 336.02734375 C-314.82349884 332.68120064 -311.59117232 329.58406048 -308.40234375 326.43359375 C-306.36285627 324.36757635 -304.444922 322.26994451 -302.5625 320.0625 C-299.25653882 316.19382202 -295.66855322 312.63935695 -292.04931641 309.06884766 C-288.80015827 305.84649591 -285.77563666 302.50668184 -282.80859375 299.02734375 C-279.82471996 295.68256946 -276.59380268 292.58664843 -273.40625 289.4375 C-271.34550655 287.34999365 -269.40484374 285.22830777 -267.5 283 C-264.80388859 279.84605835 -261.95183025 276.91626603 -259 274 C-256.06881809 271.10408042 -253.23596826 268.19757429 -250.5625 265.0625 C-247.25653882 261.19382202 -243.66855322 257.63935695 -240.04931641 254.06884766 C-236.80015827 250.84649591 -233.77563666 247.50668184 -230.80859375 244.02734375 C-227.82349884 240.68120064 -224.59117232 237.58406048 -221.40234375 234.43359375 C-219.36285627 232.36757635 -217.444922 230.26994451 -215.5625 228.0625 C-212.25653882 224.19382202 -208.66855322 220.63935695 -205.04931641 217.06884766 C-201.80015827 213.84649591 -198.77563666 210.50668184 -195.80859375 207.02734375 C-192.82349884 203.68120064 -189.59117232 200.58406048 -186.40234375 197.43359375 C-184.36285627 195.36757635 -182.444922 193.26994451 -180.5625 191.0625 C-177.69827645 187.71074904 -174.63665907 184.59443583 -171.5 181.5 C-168.38420877 178.42609473 -165.34122762 175.33297855 -162.5 172 C-159.2176661 168.14956985 -155.64745151 164.61854421 -152.04907227 161.06860352 C-148.79999393 157.84633552 -145.77556137 154.50659355 -142.80859375 151.02734375 C-139.82349884 147.68120064 -136.59117232 144.58406048 -133.40234375 141.43359375 C-131.36285627 139.36757635 -129.444922 137.26994451 -127.5625 135.0625 C-124.69827645 131.71074904 -121.63665907 128.59443583 -118.5 125.5 C-115.38420877 122.42609473 -112.34122762 119.33297855 -109.5 116 C-106.2176661 112.14956985 -102.64745151 108.61854421 -99.04907227 105.06860352 C-95.79999393 101.84633552 -92.77556137 98.50659355 -89.80859375 95.02734375 C-86.82349884 91.68120064 -83.59117232 88.58406048 -80.40234375 85.43359375 C-78.36285627 83.36757635 -76.444922 81.26994451 -74.5625 79.0625 C-71.25653882 75.19382202 -67.66855322 71.63935695 -64.04931641 68.06884766 C-60.80015827 64.84649591 -57.77563666 61.50668184 -54.80859375 58.02734375 C-51.82349884 54.68120064 -48.59117232 51.58406048 -45.40234375 48.43359375 C-43.36285627 46.36757635 -41.444922 44.26994451 -39.5625 42.0625 C-36.69827645 38.71074904 -33.63665907 35.59443583 -30.5 32.5 C-27.38420877 29.42609473 -24.34122762 26.33297855 -21.5 23 C-18.65877435 19.66702376 -15.61582859 16.57387163 -12.5 13.5 C-8.11765265 9.16600959 -3.96242939 4.71975378 0 0 Z " fill="#000000" transform="translate(1087,1506)"/>
<path d="M0 0 C43.74041649 -0.01735094 87.48083337 -0.03321761 131.22125244 -0.04234314 C131.88245046 -0.0424812 132.54364847 -0.04261925 133.22488279 -0.04276149 C147.63985614 -0.04576355 162.05482952 -0.04853238 176.46980296 -0.05106533 C183.55229703 -0.05231124 190.6347911 -0.05360799 197.71728516 -0.05493164 C198.42158839 -0.0550624 199.12589161 -0.05519316 199.85153737 -0.05532788 C220.10220647 -0.05910877 240.3528734 -0.06526603 260.60354108 -0.0737354 C434.29156532 -0.14635909 434.29156532 -0.14635909 598.60932636 0.40981603 C604.1133172 0.43610609 609.6173127 0.46121328 615.12131053 0.48599131 C626.3981225 0.53686373 637.67489313 0.59303196 648.95164776 0.655339 C652.62808216 0.67557821 656.30451808 0.69412176 659.98096943 0.71099401 C676.43145558 0.78797816 692.87850953 0.90654544 709.32269287 1.39463806 C710.48143866 1.42429958 711.64018445 1.4539611 712.83404374 1.48452145 C732.25529658 2.15259448 750.37395698 10.23319974 765 23 C765.6084375 23.48984375 766.216875 23.9796875 766.84375 24.484375 C770.69629555 27.62724111 773.90222993 31.0788581 777.1171875 34.86328125 C779.79640918 37.90380876 782.68620871 40.71050099 785.59375 43.53125 C787.57361683 45.56254194 789.43933162 47.62488754 791.296875 49.765625 C795.00292571 54.03633151 798.85784393 58.1492255 802.75 62.25 C811.50199717 71.51105736 820.11110318 80.88679299 828.62109375 90.37109375 C831.39276964 93.43404593 834.19395931 96.46856037 837 99.5 C841.27974955 104.12352611 845.51758608 108.78092335 849.72265625 113.47265625 C852.29809775 116.33082203 854.89685764 119.16710261 857.5 122 C861.58920545 126.45061978 865.64369115 130.93078117 869.6796875 135.4296875 C872.31079783 138.34428447 874.96652475 141.23539224 877.625 144.125 C880.6022264 147.36213091 883.55952966 150.61137856 886.4375 153.9375 C889.54964124 157.52958591 892.76872086 161.01551992 896 164.5 C899.78881936 168.58570879 903.52171864 172.70393273 907.16796875 176.91796875 C909.99864261 180.13491793 912.90767016 183.2797068 915.80834961 186.43334961 C920.24237809 191.25604828 924.62436405 196.12429137 929 201 C929.763125 201.845625 930.52625 202.69125 931.3125 203.5625 C934.69440087 207.31001177 938.06654487 211.06239932 941.375 214.875 C944.82851561 218.84252724 948.3900394 222.7084764 951.95263672 226.57763672 C955.06585044 229.9644456 958.11244538 233.39897544 961.125 236.875 C963.54550075 239.61823418 966.02200642 242.30884568 968.5 245 C972.10012756 248.90981595 975.64417605 252.85866468 979.125 256.875 C981.54550108 259.61823456 984.0220241 262.30882906 986.5 265 C990.12090134 268.93284841 993.68958925 272.90214012 997.19140625 276.94140625 C999.4301125 279.4895665 1001.71410212 281.99410593 1004 284.5 C1007.43264761 288.26350521 1010.8155501 292.06129351 1014.15625 295.90625 C1017.25760235 299.4281247 1020.43513333 302.88077022 1023.59765625 306.34765625 C1025.56941844 308.52460996 1027.51365337 310.71838674 1029.4375 312.9375 C1032.3988351 316.3468858 1035.44152486 319.6779431 1038.5 323 C1042.14414329 326.95862186 1045.73913717 330.9517676 1049.265625 335.015625 C1052.79499465 339.05373262 1056.40570631 343.01974189 1060 347 C1068.56860207 356.48872041 1068.56860207 356.48872041 1072.4375 360.9375 C1075.24822525 364.16559512 1078.115799 367.33738443 1081 370.5 C1084.45575413 374.28934126 1087.8652289 378.11083698 1091.23046875 381.98046875 C1094.77576954 386.02665089 1098.39458999 390.00743187 1102 394 C1110.56860207 403.48872041 1110.56860207 403.48872041 1114.4375 407.9375 C1117.24822525 411.16559512 1120.115799 414.33738443 1123 417.5 C1126.45575413 421.28934126 1129.8652289 425.11083698 1133.23046875 428.98046875 C1136.77576954 433.02665089 1140.39458999 437.00743187 1144 441 C1148.76786975 446.27985576 1153.51512218 451.57291806 1158.1875 456.9375 C1160.27211164 459.30964429 1162.38428644 461.65556065 1164.5 464 C1167.18983431 466.98062721 1169.86310364 469.97245233 1172.5 473 C1176.61081039 477.71701284 1180.80667845 482.35638889 1185 487 C1189.76786975 492.27985576 1194.51512218 497.57291806 1199.1875 502.9375 C1201.27211164 505.30964429 1203.38428644 507.65556065 1205.5 510 C1208.75899377 513.61131742 1211.97928181 517.2518847 1215.171875 520.921875 C1218.07071731 524.21714019 1221.02907691 527.45849702 1223.984375 530.703125 C1224.64953125 531.46109375 1225.3146875 532.2190625 1226 533 C1226.60328125 533.67546875 1227.2065625 534.3509375 1227.828125 535.046875 C1229 537 1229 537 1229.0078125 538.921875 C1227.52178611 541.98608446 1225.33249483 543.90634008 1222.875 546.25 C1221.86524393 547.22716226 1220.85743245 548.20633791 1219.8515625 549.1875 C1219.36075195 549.66574219 1218.86994141 550.14398437 1218.36425781 550.63671875 C1215.97167661 553.02758729 1213.80383566 555.60122108 1211.609375 558.171875 C1209.46504679 560.6076653 1207.15789619 562.8545078 1204.8425293 565.1262207 C1203.06599844 566.9328822 1201.40532264 568.79380836 1199.75390625 570.71484375 C1196.08596497 574.93292779 1192.28338749 579.00692347 1188.4375 583.0625 C1187.02187522 584.56095214 1185.60651555 586.05965478 1184.19140625 587.55859375 C1183.48773926 588.30351074 1182.78407227 589.04842773 1182.05908203 589.81591797 C1178.98643036 593.07510007 1175.92928709 596.34861448 1172.875 599.625 C1172.02119751 600.54067749 1172.02119751 600.54067749 1171.15014648 601.47485352 C1170.00591891 602.70221498 1168.86179406 603.9296722 1167.71777344 605.15722656 C1164.81340763 608.27293906 1161.90656701 611.38634111 1159 614.5 C1157.83332174 615.74998918 1156.66665507 616.99998917 1155.5 618.25 C1050.5 730.75 1050.5 730.75 1048.74951172 732.62548828 C1047.58442625 733.87381737 1046.41938709 735.12218967 1045.25439453 736.37060547 C1042.31391631 739.52152888 1039.37260346 742.67166566 1036.4296875 745.8203125 C1030.95692884 751.67717704 1025.49238477 757.54084206 1020.0625 763.4375 C1014.34390545 769.64636923 1008.5703165 775.80286796 1002.79296875 781.95703125 C999.16771201 785.81922077 995.55088433 789.68920379 991.9375 793.5625 C991.07729248 794.48458252 991.07729248 794.48458252 990.19970703 795.42529297 C989.0443868 796.66385609 987.88911326 797.90246277 986.73388672 799.14111328 C983.82336349 802.26146303 980.91161713 805.38067102 978 808.5 C976.83332754 809.74999459 975.66666087 810.99999459 974.5 812.25 C948.83333333 839.75 923.16666667 867.25 897.5 894.75 C896.92161377 895.36987793 896.34322754 895.98975586 895.74731445 896.62841797 C894.59031962 897.86769733 893.43261425 899.10631376 892.27416992 900.34423828 C889.20311549 903.62794082 886.14827361 906.92509892 883.11328125 910.2421875 C882.15905273 911.27956055 882.15905273 911.27956055 881.18554688 912.33789062 C879.96223897 913.66834958 878.74328065 915.00282463 877.52929688 916.34179688 C876.97951172 916.93798828 876.42972656 917.53417969 875.86328125 918.1484375 C875.38157471 918.67614746 874.89986816 919.20385742 874.40356445 919.74755859 C873 921 873 921 870 922 C869.61070312 921.53851562 869.22140625 921.07703125 868.8203125 920.6015625 C865.36123536 916.56862925 861.7806846 912.7344377 858 909 C854.41441301 905.45767801 851.05108338 901.82444339 847.77734375 897.99609375 C845.76731223 895.73867374 843.65167047 893.62264287 841.5 891.5 C838.73439592 888.77170593 836.08712969 886.01483166 833.5625 883.0625 C830.84380752 879.8896408 827.97248325 876.93661618 825 874 C821.43599698 870.47893677 818.09695832 866.86813992 814.84375 863.0625 C812.65203687 860.61075311 810.33932896 858.31114427 808 856 C804.43599698 852.47893677 801.09695832 848.86813992 797.84375 845.0625 C794.84649772 841.70964151 791.60840366 838.60106244 788.41015625 835.44140625 C785.73145468 832.72797273 783.25391882 829.89222977 780.77734375 826.99609375 C778.76731223 824.73867374 776.65167047 822.62264287 774.5 820.5 C771.73439592 817.77170593 769.08712969 815.01483166 766.5625 812.0625 C763.84380752 808.8896408 760.97248325 805.93661618 758 803 C754.43599698 799.47893677 751.09695832 795.86813992 747.84375 792.0625 C745.65203687 789.61075311 743.33932896 787.31114427 741 785 C737.43599698 781.47893677 734.09695832 777.86813992 730.84375 774.0625 C728.65203687 771.61075311 726.33932896 769.31114427 724 767 C720.43599698 763.47893677 717.09695832 759.86813992 713.84375 756.0625 C711.65203687 753.61075311 709.33932896 751.31114427 707 749 C703.43599698 745.47893677 700.09695832 741.86813992 696.84375 738.0625 C694.65203687 735.61075311 692.33932896 733.31114427 690 731 C686.43599698 727.47893677 683.09695832 723.86813992 679.84375 720.0625 C677.65203687 717.61075311 675.33932896 715.31114427 673 713 C670.06881809 710.10408042 667.23596826 707.19757429 664.5625 704.0625 C661.69827665 700.71074927 658.63666284 697.59443244 655.5 694.5 C651.75969662 690.81005412 648.2176065 687.02496302 644.80859375 683.02734375 C641.82471996 679.68256946 638.59380268 676.58664843 635.40625 673.4375 C632.75040247 670.74716094 630.29864568 667.93426475 627.84375 665.0625 C625.65203687 662.61075311 623.33932896 660.31114427 621 658 C617.43599698 654.47893677 614.09695832 650.86813992 610.84375 647.0625 C608.65203687 644.61075311 606.33932896 642.31114427 604 640 C601.06881809 637.10408042 598.23596826 634.19757429 595.5625 631.0625 C592.69827665 627.71074927 589.63666284 624.59443244 586.5 621.5 C582.75969662 617.81005412 579.2176065 614.02496302 575.80859375 610.02734375 C572.82471996 606.68256946 569.59380268 603.58664843 566.40625 600.4375 C563.75040247 597.74716094 561.29864568 594.93426475 558.84375 592.0625 C556.65203687 589.61075311 554.33932896 587.31114427 552 585 C549.06881809 582.10408042 546.23596826 579.19757429 543.5625 576.0625 C540.69827665 572.71074927 537.63666284 569.59443244 534.5 566.5 C530.75969662 562.81005412 527.2176065 559.02496302 523.80859375 555.02734375 C521.63041508 552.58571366 519.32751992 550.29951968 517 548 C514.06881809 545.10408042 511.23596826 542.19757429 508.5625 539.0625 C505.69827665 535.71074927 502.63666284 532.59443244 499.5 529.5 C495.75969662 525.81005412 492.2176065 522.02496302 488.80859375 518.02734375 C486.63041508 515.58571366 484.32751992 513.29951968 482 511 C479.06881809 508.10408042 476.23596826 505.19757429 473.5625 502.0625 C470.69827645 498.71074904 467.63665907 495.59443583 464.5 492.5 C460.7815401 488.8315278 457.26331808 485.06850774 453.875 481.09375 C451.06399689 477.95479653 448.04732203 475.02649319 445.04907227 472.06860352 C441.79999393 468.84633552 438.77556137 465.50659355 435.80859375 462.02734375 C433.63041508 459.58571366 431.32751992 457.29951968 429 455 C426.06881809 452.10408042 423.23596826 449.19757429 420.5625 446.0625 C417.69827645 442.71074904 414.63665907 439.59443583 411.5 436.5 C407.7815401 432.8315278 404.26331808 429.06850774 400.875 425.09375 C398.51654752 422.46014473 396.01554596 419.98173486 393.5 417.5 C389.78154495 413.83152419 386.26331805 410.06850771 382.875 406.09375 C380.51654752 403.46014473 378.01554596 400.98173486 375.5 398.5 C371.78154495 394.83152419 368.26331805 391.06850771 364.875 387.09375 C362.51654752 384.46014473 360.01554596 381.98173486 357.5 379.5 C353.78154495 375.83152419 350.26331805 372.06850771 346.875 368.09375 C344.06399689 364.95479653 341.04732203 362.02649319 338.04907227 359.06860352 C334.79999393 355.84633552 331.77556137 352.50659355 328.80859375 349.02734375 C326.63041508 346.58571366 324.32751992 344.29951968 322 342 C319.06881809 339.10408042 316.23596826 336.19757429 313.5625 333.0625 C310.69827645 329.71074904 307.63665907 326.59443583 304.5 323.5 C300.7815401 319.8315278 297.26331808 316.06850774 293.875 312.09375 C291.51654752 309.46014473 289.01554596 306.98173486 286.5 304.5 C282.78154495 300.83152419 279.26331805 297.06850771 275.875 293.09375 C273.51654726 290.46014444 271.0155432 287.98173782 268.5 285.5 C265.40508498 282.44662049 262.38065723 279.37676315 259.5625 276.0625 C256.54647196 272.52320926 253.30552422 269.26505255 250 266 C246.10104317 262.14878063 242.39175703 258.23578271 238.83984375 254.05859375 C236.04233133 250.92846838 233.03375494 248.01314342 230.04663086 245.06616211 C226.82001347 241.86614229 223.82069539 238.54927728 220.875 235.09375 C218.51654726 232.46014444 216.0155432 229.98173782 213.5 227.5 C210.40508498 224.44662049 207.38065723 221.37676315 204.5625 218.0625 C201.54647196 214.52320926 198.30552422 211.26505255 195 208 C191.10104317 204.14878063 187.39175703 200.23578271 183.83984375 196.05859375 C181.49504936 193.43501277 179.00369432 190.97009896 176.5 188.5 C173.40508867 185.44661717 170.38065743 182.37676339 167.5625 179.0625 C164.54647196 175.52320926 161.30552422 172.26505255 158 169 C154.10104317 165.14878063 150.39175703 161.23578271 146.83984375 157.05859375 C144.49504936 154.43501277 142.00369432 151.97009896 139.5 149.5 C136.40508867 146.44661717 133.38065743 143.37676339 130.5625 140.0625 C127.54647173 136.523209 124.30552099 133.26505555 121 130 C117.12271626 126.17012306 113.4375639 122.27948694 109.90625 118.125 C106.8799847 114.75145836 103.62789294 111.60796464 100.40454102 108.42407227 C97.04939106 105.0941767 93.90274548 101.66068601 90.83984375 98.05859375 C88.49504911 95.43501248 86.00369158 92.97010189 83.5 90.5 C80.4259623 87.46714854 77.42000821 84.4206067 74.625 81.125 C71.4387061 77.38456803 67.99120315 73.95195962 64.5 70.5 C60.4453483 66.49087421 56.56021848 62.44135496 52.87109375 58.08984375 C49.85849309 54.72503925 46.61427958 51.59454812 43.40209961 48.42163086 C40.06940938 45.11400237 36.94791884 41.70343393 33.90625 38.125 C31.37749561 35.30606068 28.69353999 32.66061163 26 30 C22.12917106 26.17649171 18.4423141 22.2998545 14.9296875 18.140625 C13.31608332 16.35063494 11.66819874 14.66661239 9.9453125 12.984375 C9.39939453 12.45070313 8.85347656 11.91703125 8.29101562 11.3671875 C7.20003581 10.30818248 6.10257842 9.25580048 4.99804688 8.2109375 C2.24474043 5.53892251 0.71027432 3.7633488 0 0 Z " fill="#000000" transform="translate(216,535)"/>
</svg>
